# xmcd
#
# Track frame offsets: 
#        225
#        13627
#        33682
#        51350
#        64660
#        77590
#        90780
#        99032
#        109640
#        119230
#        128340
#        143155
#        157130
#        178240
#        192310
#        203977
#        216382
#        224412
#        234950
#        244405
#        255140
#        282675
#
# Disc length: 3881 seconds
#
# Revision: 1
# Processed by: cddbd v1.5.2PL0 Copyright (c) Steve Scherf et al.
# Submitted via: ExactAudioCopy v1.0b3
#
DISCID=410f2616
DTITLE=Hollywood Studio Orchestra - 22 Famous Western Film Tracks
DYEAR=1986
DGENRE=Western
TTITLE0=High Noon
TTITLE1=Wand'ring Star
TTITLE2=Once Upon a Time in the West
TTITLE3=Rio Bravo
TTITLE4=The Good, the Bad and the Ugly
TTITLE5=Hang'm High
TTITLE6=A Fistful of Dollars
TTITLE7=A Gun for Ringo
TTITLE8=The Magnificient Seven
TTITLE9=How the West was Won
TTITLE10=The Man with the Harmonica
TTITLE11=My Name is Nobody
TTITLE12=A Fistful of Dynamite
TTITLE13=Johnny Guitar
TTITLE14=Pancho Villa
TTITLE15=For a Few Dollars More
TTITLE16=Ballad of the Alamo
TTITLE17=The Comancheros
TTITLE18=Bye Bye Colonel
TTITLE19=The Return of the Seven
TTITLE20=Good Luck Jack
TTITLE21=La Libertad
EXTD=
EXTT0=
EXTT1=
EXTT2=
EXTT3=
EXTT4=
EXTT5=
EXTT6=
EXTT7=
EXTT8=
EXTT9=
EXTT10=
EXTT11=
EXTT12=
EXTT13=
EXTT14=
EXTT15=
EXTT16=
EXTT17=
EXTT18=
EXTT19=
EXTT20=
EXTT21=
PLAYORDER=
